<mxfile host="app.diagrams.net" agent="Mozilla/5.0 (Windows NT 10.0; Win64; x64) AppleWebKit/537.36 (KHTML, like Gecko) Chrome/136.0.0.0 Safari/537.36" version="27.0.3">
  <diagram name="Σελίδα-1" id="VbvC_hYN4VeRJr1SmG8f">
    <mxGraphModel dx="3829" dy="2445" grid="1" gridSize="10" guides="1" tooltips="1" connect="1" arrows="1" fold="1" page="1" pageScale="1" pageWidth="827" pageHeight="1169" math="0" shadow="0">
      <root>
        <mxCell id="0" />
        <mxCell id="1" parent="0" />
        <mxCell id="A1f5qZkB9SCuruUHtYql-1" value="OrderPlacementPage" style="swimlane;fontStyle=1;align=center;verticalAlign=top;childLayout=stackLayout;horizontal=1;startSize=26;horizontalStack=0;resizeParent=1;resizeParentMax=0;resizeLast=0;collapsible=1;marginBottom=0;whiteSpace=wrap;html=1;" vertex="1" parent="1">
          <mxGeometry x="360" y="-160" width="160" height="230" as="geometry" />
        </mxCell>
        <mxCell id="A1f5qZkB9SCuruUHtYql-2" value="+orderId: int&lt;div&gt;+foodList: list&amp;lt;Food&amp;gt;&lt;/div&gt;" style="text;strokeColor=none;fillColor=none;align=left;verticalAlign=top;spacingLeft=4;spacingRight=4;overflow=hidden;rotatable=0;points=[[0,0.5],[1,0.5]];portConstraint=eastwest;whiteSpace=wrap;html=1;" vertex="1" parent="A1f5qZkB9SCuruUHtYql-1">
          <mxGeometry y="26" width="160" height="54" as="geometry" />
        </mxCell>
        <mxCell id="A1f5qZkB9SCuruUHtYql-3" value="" style="line;strokeWidth=1;fillColor=none;align=left;verticalAlign=middle;spacingTop=-1;spacingLeft=3;spacingRight=3;rotatable=0;labelPosition=right;points=[];portConstraint=eastwest;strokeColor=inherit;" vertex="1" parent="A1f5qZkB9SCuruUHtYql-1">
          <mxGeometry y="80" width="160" height="8" as="geometry" />
        </mxCell>
        <mxCell id="A1f5qZkB9SCuruUHtYql-4" value="+showFood(): void&lt;div&gt;+fetchSearchedFood(String searchTerm): list&amp;lt;Food&amp;gt;&lt;/div&gt;&lt;div&gt;+saveFood(Food food,int quantity):void&lt;/div&gt;&lt;div&gt;+keepSearching(): void&lt;/div&gt;&lt;div&gt;+stopSearching(): void&lt;/div&gt;&lt;div&gt;+cancelOrder(): void&lt;/div&gt;&lt;div&gt;+finishOrder(): void&lt;/div&gt;" style="text;strokeColor=none;fillColor=none;align=left;verticalAlign=top;spacingLeft=4;spacingRight=4;overflow=hidden;rotatable=0;points=[[0,0.5],[1,0.5]];portConstraint=eastwest;whiteSpace=wrap;html=1;" vertex="1" parent="A1f5qZkB9SCuruUHtYql-1">
          <mxGeometry y="88" width="160" height="142" as="geometry" />
        </mxCell>
        <mxCell id="A1f5qZkB9SCuruUHtYql-5" value="FoodService" style="swimlane;fontStyle=1;align=center;verticalAlign=top;childLayout=stackLayout;horizontal=1;startSize=26;horizontalStack=0;resizeParent=1;resizeParentMax=0;resizeLast=0;collapsible=1;marginBottom=0;whiteSpace=wrap;html=1;" vertex="1" parent="1">
          <mxGeometry x="530" y="160" width="160" height="140" as="geometry" />
        </mxCell>
        <mxCell id="A1f5qZkB9SCuruUHtYql-6" value="-foodList: list&amp;lt;Food&amp;gt;" style="text;strokeColor=none;fillColor=none;align=left;verticalAlign=top;spacingLeft=4;spacingRight=4;overflow=hidden;rotatable=0;points=[[0,0.5],[1,0.5]];portConstraint=eastwest;whiteSpace=wrap;html=1;" vertex="1" parent="A1f5qZkB9SCuruUHtYql-5">
          <mxGeometry y="26" width="160" height="26" as="geometry" />
        </mxCell>
        <mxCell id="A1f5qZkB9SCuruUHtYql-7" value="" style="line;strokeWidth=1;fillColor=none;align=left;verticalAlign=middle;spacingTop=-1;spacingLeft=3;spacingRight=3;rotatable=0;labelPosition=right;points=[];portConstraint=eastwest;strokeColor=inherit;" vertex="1" parent="A1f5qZkB9SCuruUHtYql-5">
          <mxGeometry y="52" width="160" height="8" as="geometry" />
        </mxCell>
        <mxCell id="A1f5qZkB9SCuruUHtYql-8" value="+getAllFoods(): list&amp;lt;Food&amp;gt;&lt;div&gt;+searchFood(String Name):list&amp;lt;Food&amp;gt;&lt;/div&gt;" style="text;strokeColor=none;fillColor=none;align=left;verticalAlign=top;spacingLeft=4;spacingRight=4;overflow=hidden;rotatable=0;points=[[0,0.5],[1,0.5]];portConstraint=eastwest;whiteSpace=wrap;html=1;" vertex="1" parent="A1f5qZkB9SCuruUHtYql-5">
          <mxGeometry y="60" width="160" height="80" as="geometry" />
        </mxCell>
        <mxCell id="A1f5qZkB9SCuruUHtYql-13" value="Order" style="swimlane;fontStyle=1;align=center;verticalAlign=top;childLayout=stackLayout;horizontal=1;startSize=26;horizontalStack=0;resizeParent=1;resizeParentMax=0;resizeLast=0;collapsible=1;marginBottom=0;whiteSpace=wrap;html=1;" vertex="1" parent="1">
          <mxGeometry x="-50" y="358" width="160" height="164" as="geometry" />
        </mxCell>
        <mxCell id="A1f5qZkB9SCuruUHtYql-14" value="-orderId: int&lt;div&gt;-orderDate: LocalDateTime&lt;/div&gt;&lt;div&gt;-status: String&lt;/div&gt;&lt;div&gt;-items: list&amp;lt;Food&amp;gt;&lt;/div&gt;&lt;div&gt;-totalPrice: double&lt;/div&gt;" style="text;strokeColor=none;fillColor=none;align=left;verticalAlign=top;spacingLeft=4;spacingRight=4;overflow=hidden;rotatable=0;points=[[0,0.5],[1,0.5]];portConstraint=eastwest;whiteSpace=wrap;html=1;" vertex="1" parent="A1f5qZkB9SCuruUHtYql-13">
          <mxGeometry y="26" width="160" height="104" as="geometry" />
        </mxCell>
        <mxCell id="A1f5qZkB9SCuruUHtYql-15" value="" style="line;strokeWidth=1;fillColor=none;align=left;verticalAlign=middle;spacingTop=-1;spacingLeft=3;spacingRight=3;rotatable=0;labelPosition=right;points=[];portConstraint=eastwest;strokeColor=inherit;" vertex="1" parent="A1f5qZkB9SCuruUHtYql-13">
          <mxGeometry y="130" width="160" height="8" as="geometry" />
        </mxCell>
        <mxCell id="A1f5qZkB9SCuruUHtYql-16" value="+ method(type): type" style="text;strokeColor=none;fillColor=none;align=left;verticalAlign=top;spacingLeft=4;spacingRight=4;overflow=hidden;rotatable=0;points=[[0,0.5],[1,0.5]];portConstraint=eastwest;whiteSpace=wrap;html=1;" vertex="1" parent="A1f5qZkB9SCuruUHtYql-13">
          <mxGeometry y="138" width="160" height="26" as="geometry" />
        </mxCell>
        <mxCell id="A1f5qZkB9SCuruUHtYql-21" value="Food" style="swimlane;fontStyle=1;align=center;verticalAlign=top;childLayout=stackLayout;horizontal=1;startSize=26;horizontalStack=0;resizeParent=1;resizeParentMax=0;resizeLast=0;collapsible=1;marginBottom=0;whiteSpace=wrap;html=1;" vertex="1" parent="1">
          <mxGeometry x="370" y="380" width="160" height="188" as="geometry" />
        </mxCell>
        <mxCell id="A1f5qZkB9SCuruUHtYql-22" value="-Name: String&lt;div&gt;-Description: String&lt;/div&gt;&lt;div&gt;-Price: double&lt;/div&gt;&lt;div&gt;-category: String&lt;/div&gt;&lt;div&gt;-available: boolean&lt;/div&gt;" style="text;strokeColor=none;fillColor=none;align=left;verticalAlign=top;spacingLeft=4;spacingRight=4;overflow=hidden;rotatable=0;points=[[0,0.5],[1,0.5]];portConstraint=eastwest;whiteSpace=wrap;html=1;" vertex="1" parent="A1f5qZkB9SCuruUHtYql-21">
          <mxGeometry y="26" width="160" height="104" as="geometry" />
        </mxCell>
        <mxCell id="A1f5qZkB9SCuruUHtYql-23" value="" style="line;strokeWidth=1;fillColor=none;align=left;verticalAlign=middle;spacingTop=-1;spacingLeft=3;spacingRight=3;rotatable=0;labelPosition=right;points=[];portConstraint=eastwest;strokeColor=inherit;" vertex="1" parent="A1f5qZkB9SCuruUHtYql-21">
          <mxGeometry y="130" width="160" height="8" as="geometry" />
        </mxCell>
        <mxCell id="A1f5qZkB9SCuruUHtYql-24" value="+ method(type): type" style="text;strokeColor=none;fillColor=none;align=left;verticalAlign=top;spacingLeft=4;spacingRight=4;overflow=hidden;rotatable=0;points=[[0,0.5],[1,0.5]];portConstraint=eastwest;whiteSpace=wrap;html=1;" vertex="1" parent="A1f5qZkB9SCuruUHtYql-21">
          <mxGeometry y="138" width="160" height="50" as="geometry" />
        </mxCell>
        <mxCell id="A1f5qZkB9SCuruUHtYql-25" value="OrderService" style="swimlane;fontStyle=1;align=center;verticalAlign=top;childLayout=stackLayout;horizontal=1;startSize=30;horizontalStack=0;resizeParent=1;resizeParentMax=0;resizeLast=0;collapsible=1;marginBottom=0;whiteSpace=wrap;html=1;" vertex="1" parent="1">
          <mxGeometry x="160" y="150" width="160" height="160" as="geometry" />
        </mxCell>
        <mxCell id="A1f5qZkB9SCuruUHtYql-26" value="+orderId: int" style="text;strokeColor=none;fillColor=none;align=left;verticalAlign=top;spacingLeft=4;spacingRight=4;overflow=hidden;rotatable=0;points=[[0,0.5],[1,0.5]];portConstraint=eastwest;whiteSpace=wrap;html=1;" vertex="1" parent="A1f5qZkB9SCuruUHtYql-25">
          <mxGeometry y="30" width="160" height="26" as="geometry" />
        </mxCell>
        <mxCell id="A1f5qZkB9SCuruUHtYql-27" value="" style="line;strokeWidth=1;fillColor=none;align=left;verticalAlign=middle;spacingTop=-1;spacingLeft=3;spacingRight=3;rotatable=0;labelPosition=right;points=[];portConstraint=eastwest;strokeColor=inherit;" vertex="1" parent="A1f5qZkB9SCuruUHtYql-25">
          <mxGeometry y="56" width="160" height="8" as="geometry" />
        </mxCell>
        <mxCell id="A1f5qZkB9SCuruUHtYql-28" value="+addFoodToOrder(Food food,int quantity) :void&lt;div&gt;+confirmOrder(): Order&lt;/div&gt;&lt;div&gt;+cancelCurrentOrder(): void&lt;/div&gt;" style="text;strokeColor=none;fillColor=none;align=left;verticalAlign=top;spacingLeft=4;spacingRight=4;overflow=hidden;rotatable=0;points=[[0,0.5],[1,0.5]];portConstraint=eastwest;whiteSpace=wrap;html=1;" vertex="1" parent="A1f5qZkB9SCuruUHtYql-25">
          <mxGeometry y="64" width="160" height="96" as="geometry" />
        </mxCell>
        <mxCell id="A1f5qZkB9SCuruUHtYql-36" value="User" style="swimlane;fontStyle=1;align=center;verticalAlign=top;childLayout=stackLayout;horizontal=1;startSize=26;horizontalStack=0;resizeParent=1;resizeParentMax=0;resizeLast=0;collapsible=1;marginBottom=0;whiteSpace=wrap;html=1;" vertex="1" parent="1">
          <mxGeometry x="30" y="-320" width="160" height="34" as="geometry" />
        </mxCell>
        <mxCell id="A1f5qZkB9SCuruUHtYql-38" value="" style="line;strokeWidth=1;fillColor=none;align=left;verticalAlign=middle;spacingTop=-1;spacingLeft=3;spacingRight=3;rotatable=0;labelPosition=right;points=[];portConstraint=eastwest;strokeColor=inherit;" vertex="1" parent="A1f5qZkB9SCuruUHtYql-36">
          <mxGeometry y="26" width="160" height="8" as="geometry" />
        </mxCell>
        <mxCell id="A1f5qZkB9SCuruUHtYql-40" value="" style="endArrow=none;html=1;edgeStyle=orthogonalEdgeStyle;rounded=0;exitX=0.484;exitY=0.9;exitDx=0;exitDy=0;exitPerimeter=0;entryX=-0.023;entryY=0.403;entryDx=0;entryDy=0;entryPerimeter=0;" edge="1" parent="1" source="A1f5qZkB9SCuruUHtYql-38" target="A1f5qZkB9SCuruUHtYql-4">
          <mxGeometry relative="1" as="geometry">
            <mxPoint x="-100" as="sourcePoint" />
            <mxPoint x="60" as="targetPoint" />
          </mxGeometry>
        </mxCell>
        <mxCell id="A1f5qZkB9SCuruUHtYql-41" value="parent" style="edgeLabel;resizable=0;html=1;align=left;verticalAlign=bottom;" connectable="0" vertex="1" parent="A1f5qZkB9SCuruUHtYql-40">
          <mxGeometry x="-1" relative="1" as="geometry">
            <mxPoint x="3" y="27" as="offset" />
          </mxGeometry>
        </mxCell>
        <mxCell id="A1f5qZkB9SCuruUHtYql-42" value="child" style="edgeLabel;resizable=0;html=1;align=right;verticalAlign=bottom;" connectable="0" vertex="1" parent="A1f5qZkB9SCuruUHtYql-40">
          <mxGeometry x="1" relative="1" as="geometry" />
        </mxCell>
        <mxCell id="A1f5qZkB9SCuruUHtYql-43" value="1" style="endArrow=open;html=1;endSize=12;startArrow=diamondThin;startSize=14;startFill=1;edgeStyle=orthogonalEdgeStyle;align=left;verticalAlign=bottom;rounded=0;exitX=0.431;exitY=1;exitDx=0;exitDy=0;exitPerimeter=0;entryX=1;entryY=0.5;entryDx=0;entryDy=0;" edge="1" parent="1" source="A1f5qZkB9SCuruUHtYql-28" target="A1f5qZkB9SCuruUHtYql-14">
          <mxGeometry x="-1" y="3" relative="1" as="geometry">
            <mxPoint x="130" y="340" as="sourcePoint" />
            <mxPoint x="290" y="340" as="targetPoint" />
          </mxGeometry>
        </mxCell>
        <mxCell id="A1f5qZkB9SCuruUHtYql-46" value="1" style="endArrow=open;html=1;endSize=12;startArrow=diamondThin;startSize=14;startFill=1;edgeStyle=orthogonalEdgeStyle;align=left;verticalAlign=bottom;rounded=0;exitX=0.468;exitY=1.002;exitDx=0;exitDy=0;exitPerimeter=0;entryX=1;entryY=0.5;entryDx=0;entryDy=0;" edge="1" parent="1" source="A1f5qZkB9SCuruUHtYql-8" target="A1f5qZkB9SCuruUHtYql-22">
          <mxGeometry x="-1" y="3" relative="1" as="geometry">
            <mxPoint x="590" y="350" as="sourcePoint" />
            <mxPoint x="750" y="350" as="targetPoint" />
          </mxGeometry>
        </mxCell>
        <mxCell id="A1f5qZkB9SCuruUHtYql-47" value="" style="endArrow=none;html=1;edgeStyle=orthogonalEdgeStyle;rounded=0;exitX=1.003;exitY=0.854;exitDx=0;exitDy=0;exitPerimeter=0;entryX=0.5;entryY=0;entryDx=0;entryDy=0;" edge="1" parent="1" source="A1f5qZkB9SCuruUHtYql-4" target="A1f5qZkB9SCuruUHtYql-5">
          <mxGeometry relative="1" as="geometry">
            <mxPoint x="550" y="100" as="sourcePoint" />
            <mxPoint x="710" y="100" as="targetPoint" />
          </mxGeometry>
        </mxCell>
        <mxCell id="A1f5qZkB9SCuruUHtYql-48" value="parent" style="edgeLabel;resizable=0;html=1;align=left;verticalAlign=bottom;" connectable="0" vertex="1" parent="A1f5qZkB9SCuruUHtYql-47">
          <mxGeometry x="-1" relative="1" as="geometry" />
        </mxCell>
        <mxCell id="A1f5qZkB9SCuruUHtYql-49" value="child" style="edgeLabel;resizable=0;html=1;align=right;verticalAlign=bottom;" connectable="0" vertex="1" parent="A1f5qZkB9SCuruUHtYql-47">
          <mxGeometry x="1" relative="1" as="geometry" />
        </mxCell>
        <mxCell id="A1f5qZkB9SCuruUHtYql-50" value="" style="endArrow=none;html=1;edgeStyle=orthogonalEdgeStyle;rounded=0;exitX=0.003;exitY=0.996;exitDx=0;exitDy=0;exitPerimeter=0;entryX=0.5;entryY=0;entryDx=0;entryDy=0;" edge="1" parent="1" source="A1f5qZkB9SCuruUHtYql-4" target="A1f5qZkB9SCuruUHtYql-25">
          <mxGeometry relative="1" as="geometry">
            <mxPoint x="380" y="130" as="sourcePoint" />
            <mxPoint x="540" y="130" as="targetPoint" />
          </mxGeometry>
        </mxCell>
        <mxCell id="A1f5qZkB9SCuruUHtYql-51" value="parent" style="edgeLabel;resizable=0;html=1;align=left;verticalAlign=bottom;" connectable="0" vertex="1" parent="A1f5qZkB9SCuruUHtYql-50">
          <mxGeometry x="-1" relative="1" as="geometry">
            <mxPoint x="-40" as="offset" />
          </mxGeometry>
        </mxCell>
        <mxCell id="A1f5qZkB9SCuruUHtYql-52" value="child" style="edgeLabel;resizable=0;html=1;align=right;verticalAlign=bottom;" connectable="0" vertex="1" parent="A1f5qZkB9SCuruUHtYql-50">
          <mxGeometry x="1" relative="1" as="geometry" />
        </mxCell>
        <mxCell id="A1f5qZkB9SCuruUHtYql-53" value="Dish" style="swimlane;fontStyle=1;align=center;verticalAlign=top;childLayout=stackLayout;horizontal=1;startSize=26;horizontalStack=0;resizeParent=1;resizeParentMax=0;resizeLast=0;collapsible=1;marginBottom=0;whiteSpace=wrap;html=1;" vertex="1" parent="1">
          <mxGeometry x="-750" y="110" width="160" height="240" as="geometry" />
        </mxCell>
        <mxCell id="A1f5qZkB9SCuruUHtYql-54" value="-dishName: String&lt;div&gt;-recipe: String&lt;/div&gt;&lt;div&gt;-neededIngredients: list&amp;lt;Ingredient&amp;gt;&lt;/div&gt;" style="text;strokeColor=none;fillColor=none;align=left;verticalAlign=top;spacingLeft=4;spacingRight=4;overflow=hidden;rotatable=0;points=[[0,0.5],[1,0.5]];portConstraint=eastwest;whiteSpace=wrap;html=1;" vertex="1" parent="A1f5qZkB9SCuruUHtYql-53">
          <mxGeometry y="26" width="160" height="104" as="geometry" />
        </mxCell>
        <mxCell id="A1f5qZkB9SCuruUHtYql-55" value="" style="line;strokeWidth=1;fillColor=none;align=left;verticalAlign=middle;spacingTop=-1;spacingLeft=3;spacingRight=3;rotatable=0;labelPosition=right;points=[];portConstraint=eastwest;strokeColor=inherit;" vertex="1" parent="A1f5qZkB9SCuruUHtYql-53">
          <mxGeometry y="130" width="160" height="8" as="geometry" />
        </mxCell>
        <mxCell id="A1f5qZkB9SCuruUHtYql-56" value="+checkIngredients( list&amp;lt;Ingredient&amp;gt; IngredientsList): boolean" style="text;strokeColor=none;fillColor=none;align=left;verticalAlign=top;spacingLeft=4;spacingRight=4;overflow=hidden;rotatable=0;points=[[0,0.5],[1,0.5]];portConstraint=eastwest;whiteSpace=wrap;html=1;" vertex="1" parent="A1f5qZkB9SCuruUHtYql-53">
          <mxGeometry y="138" width="160" height="102" as="geometry" />
        </mxCell>
        <mxCell id="A1f5qZkB9SCuruUHtYql-57" value="Classname" style="swimlane;fontStyle=1;align=center;verticalAlign=top;childLayout=stackLayout;horizontal=1;startSize=26;horizontalStack=0;resizeParent=1;resizeParentMax=0;resizeLast=0;collapsible=1;marginBottom=0;whiteSpace=wrap;html=1;" vertex="1" parent="1">
          <mxGeometry x="-20" y="-20" width="160" height="86" as="geometry" />
        </mxCell>
        <mxCell id="A1f5qZkB9SCuruUHtYql-58" value="+ field: type" style="text;strokeColor=none;fillColor=none;align=left;verticalAlign=top;spacingLeft=4;spacingRight=4;overflow=hidden;rotatable=0;points=[[0,0.5],[1,0.5]];portConstraint=eastwest;whiteSpace=wrap;html=1;" vertex="1" parent="A1f5qZkB9SCuruUHtYql-57">
          <mxGeometry y="26" width="160" height="26" as="geometry" />
        </mxCell>
        <mxCell id="A1f5qZkB9SCuruUHtYql-59" value="" style="line;strokeWidth=1;fillColor=none;align=left;verticalAlign=middle;spacingTop=-1;spacingLeft=3;spacingRight=3;rotatable=0;labelPosition=right;points=[];portConstraint=eastwest;strokeColor=inherit;" vertex="1" parent="A1f5qZkB9SCuruUHtYql-57">
          <mxGeometry y="52" width="160" height="8" as="geometry" />
        </mxCell>
        <mxCell id="A1f5qZkB9SCuruUHtYql-60" value="+ method(type): type" style="text;strokeColor=none;fillColor=none;align=left;verticalAlign=top;spacingLeft=4;spacingRight=4;overflow=hidden;rotatable=0;points=[[0,0.5],[1,0.5]];portConstraint=eastwest;whiteSpace=wrap;html=1;" vertex="1" parent="A1f5qZkB9SCuruUHtYql-57">
          <mxGeometry y="60" width="160" height="26" as="geometry" />
        </mxCell>
        <mxCell id="A1f5qZkB9SCuruUHtYql-61" value="DishPreparationScreen" style="swimlane;fontStyle=1;align=center;verticalAlign=top;childLayout=stackLayout;horizontal=1;startSize=26;horizontalStack=0;resizeParent=1;resizeParentMax=0;resizeLast=0;collapsible=1;marginBottom=0;whiteSpace=wrap;html=1;" vertex="1" parent="1">
          <mxGeometry x="-530" y="-240" width="160" height="190" as="geometry" />
        </mxCell>
        <mxCell id="A1f5qZkB9SCuruUHtYql-62" value="-dishName: String" style="text;strokeColor=none;fillColor=none;align=left;verticalAlign=top;spacingLeft=4;spacingRight=4;overflow=hidden;rotatable=0;points=[[0,0.5],[1,0.5]];portConstraint=eastwest;whiteSpace=wrap;html=1;" vertex="1" parent="A1f5qZkB9SCuruUHtYql-61">
          <mxGeometry y="26" width="160" height="26" as="geometry" />
        </mxCell>
        <mxCell id="A1f5qZkB9SCuruUHtYql-63" value="" style="line;strokeWidth=1;fillColor=none;align=left;verticalAlign=middle;spacingTop=-1;spacingLeft=3;spacingRight=3;rotatable=0;labelPosition=right;points=[];portConstraint=eastwest;strokeColor=inherit;" vertex="1" parent="A1f5qZkB9SCuruUHtYql-61">
          <mxGeometry y="52" width="160" height="8" as="geometry" />
        </mxCell>
        <mxCell id="A1f5qZkB9SCuruUHtYql-64" value="+fetchDishes(): Dish&lt;div&gt;+checkIngredients( list&amp;lt;ingredient&amp;gt; ingredientList): boolean&lt;/div&gt;&lt;div&gt;+cancelPreparation(): void&lt;/div&gt;&lt;div&gt;+confirmPreparation(): void&lt;/div&gt;" style="text;strokeColor=none;fillColor=none;align=left;verticalAlign=top;spacingLeft=4;spacingRight=4;overflow=hidden;rotatable=0;points=[[0,0.5],[1,0.5]];portConstraint=eastwest;whiteSpace=wrap;html=1;" vertex="1" parent="A1f5qZkB9SCuruUHtYql-61">
          <mxGeometry y="60" width="160" height="130" as="geometry" />
        </mxCell>
        <mxCell id="A1f5qZkB9SCuruUHtYql-65" value="Ingredient" style="swimlane;fontStyle=1;align=center;verticalAlign=top;childLayout=stackLayout;horizontal=1;startSize=26;horizontalStack=0;resizeParent=1;resizeParentMax=0;resizeLast=0;collapsible=1;marginBottom=0;whiteSpace=wrap;html=1;" vertex="1" parent="1">
          <mxGeometry x="-493" y="358" width="160" height="124" as="geometry" />
        </mxCell>
        <mxCell id="A1f5qZkB9SCuruUHtYql-66" value="-Name:String&lt;div&gt;-quantity: int&lt;/div&gt;" style="text;strokeColor=none;fillColor=none;align=left;verticalAlign=top;spacingLeft=4;spacingRight=4;overflow=hidden;rotatable=0;points=[[0,0.5],[1,0.5]];portConstraint=eastwest;whiteSpace=wrap;html=1;" vertex="1" parent="A1f5qZkB9SCuruUHtYql-65">
          <mxGeometry y="26" width="160" height="64" as="geometry" />
        </mxCell>
        <mxCell id="A1f5qZkB9SCuruUHtYql-67" value="" style="line;strokeWidth=1;fillColor=none;align=left;verticalAlign=middle;spacingTop=-1;spacingLeft=3;spacingRight=3;rotatable=0;labelPosition=right;points=[];portConstraint=eastwest;strokeColor=inherit;" vertex="1" parent="A1f5qZkB9SCuruUHtYql-65">
          <mxGeometry y="90" width="160" height="8" as="geometry" />
        </mxCell>
        <mxCell id="A1f5qZkB9SCuruUHtYql-68" value="+ method(type): type" style="text;strokeColor=none;fillColor=none;align=left;verticalAlign=top;spacingLeft=4;spacingRight=4;overflow=hidden;rotatable=0;points=[[0,0.5],[1,0.5]];portConstraint=eastwest;whiteSpace=wrap;html=1;" vertex="1" parent="A1f5qZkB9SCuruUHtYql-65">
          <mxGeometry y="98" width="160" height="26" as="geometry" />
        </mxCell>
        <mxCell id="A1f5qZkB9SCuruUHtYql-73" value="1" style="endArrow=open;html=1;endSize=12;startArrow=diamondThin;startSize=14;startFill=1;edgeStyle=orthogonalEdgeStyle;align=left;verticalAlign=bottom;rounded=0;exitX=0.414;exitY=1.01;exitDx=0;exitDy=0;exitPerimeter=0;entryX=0;entryY=0.5;entryDx=0;entryDy=0;" edge="1" parent="1" source="A1f5qZkB9SCuruUHtYql-56" target="A1f5qZkB9SCuruUHtYql-66">
          <mxGeometry x="-1" y="3" relative="1" as="geometry">
            <mxPoint x="-700" y="330" as="sourcePoint" />
            <mxPoint x="-540" y="330" as="targetPoint" />
          </mxGeometry>
        </mxCell>
        <mxCell id="A1f5qZkB9SCuruUHtYql-74" value="" style="endArrow=none;html=1;edgeStyle=orthogonalEdgeStyle;rounded=0;exitX=0;exitY=0.5;exitDx=0;exitDy=0;entryX=0.441;entryY=0;entryDx=0;entryDy=0;entryPerimeter=0;" edge="1" parent="1" source="A1f5qZkB9SCuruUHtYql-64" target="A1f5qZkB9SCuruUHtYql-53">
          <mxGeometry relative="1" as="geometry">
            <mxPoint x="-493" y="50" as="sourcePoint" />
            <mxPoint x="-333" y="50" as="targetPoint" />
          </mxGeometry>
        </mxCell>
        <mxCell id="A1f5qZkB9SCuruUHtYql-75" value="parent" style="edgeLabel;resizable=0;html=1;align=left;verticalAlign=bottom;" connectable="0" vertex="1" parent="A1f5qZkB9SCuruUHtYql-74">
          <mxGeometry x="-1" relative="1" as="geometry">
            <mxPoint x="-40" y="25" as="offset" />
          </mxGeometry>
        </mxCell>
        <mxCell id="A1f5qZkB9SCuruUHtYql-76" value="child" style="edgeLabel;resizable=0;html=1;align=right;verticalAlign=bottom;" connectable="0" vertex="1" parent="A1f5qZkB9SCuruUHtYql-74">
          <mxGeometry x="1" relative="1" as="geometry" />
        </mxCell>
        <mxCell id="A1f5qZkB9SCuruUHtYql-77" value="" style="endArrow=none;html=1;edgeStyle=orthogonalEdgeStyle;rounded=0;exitX=0;exitY=0.75;exitDx=0;exitDy=0;entryX=1.036;entryY=0.385;entryDx=0;entryDy=0;entryPerimeter=0;" edge="1" parent="1" source="A1f5qZkB9SCuruUHtYql-36" target="A1f5qZkB9SCuruUHtYql-64">
          <mxGeometry relative="1" as="geometry">
            <mxPoint x="-300" y="-145.76999999999998" as="sourcePoint" />
            <mxPoint x="-140" y="-145.76999999999998" as="targetPoint" />
          </mxGeometry>
        </mxCell>
        <mxCell id="A1f5qZkB9SCuruUHtYql-78" value="parent" style="edgeLabel;resizable=0;html=1;align=left;verticalAlign=bottom;" connectable="0" vertex="1" parent="A1f5qZkB9SCuruUHtYql-77">
          <mxGeometry x="-1" relative="1" as="geometry" />
        </mxCell>
        <mxCell id="A1f5qZkB9SCuruUHtYql-79" value="child" style="edgeLabel;resizable=0;html=1;align=right;verticalAlign=bottom;" connectable="0" vertex="1" parent="A1f5qZkB9SCuruUHtYql-77">
          <mxGeometry x="1" relative="1" as="geometry">
            <mxPoint x="24" as="offset" />
          </mxGeometry>
        </mxCell>
      </root>
    </mxGraphModel>
  </diagram>
</mxfile>
